<svg width="32" height="32" viewBox="0 0 32 32" fill="none" xmlns="http://www.w3.org/2000/svg">
<path d="M7.99984 9.33333H14.6665C15.0201 9.33333 15.3593 9.47381 15.6093 9.72386C15.8594 9.9739 15.9998 10.313 15.9998 10.6667C15.9998 11.0203 15.8594 11.3594 15.6093 11.6095C15.3593 11.8595 15.0201 12 14.6665 12H7.99984C7.64622 12 7.30708 11.8595 7.05703 11.6095C6.80698 11.3594 6.6665 11.0203 6.6665 10.6667C6.6665 10.313 6.80698 9.9739 7.05703 9.72386C7.30708 9.47381 7.64622 9.33333 7.99984 9.33333ZM17.3332 20H23.9998C24.3535 20 24.6926 20.1405 24.9426 20.3905C25.1927 20.6406 25.3332 20.9797 25.3332 21.3333C25.3332 21.687 25.1927 22.0261 24.9426 22.2761C24.6926 22.5262 24.3535 22.6667 23.9998 22.6667H17.3332C16.9795 22.6667 16.6404 22.5262 16.3904 22.2761C16.1403 22.0261 15.9998 21.687 15.9998 21.3333C15.9998 20.9797 16.1403 20.6406 16.3904 20.3905C16.6404 20.1405 16.9795 20 17.3332 20ZM7.99984 14.6667H23.9998C24.3535 14.6667 24.6926 14.8071 24.9426 15.0572C25.1927 15.3072 25.3332 15.6464 25.3332 16C25.3332 16.3536 25.1927 16.6928 24.9426 16.9428C24.6926 17.1929 24.3535 17.3333 23.9998 17.3333H7.99984C7.64622 17.3333 7.30708 17.1929 7.05703 16.9428C6.80698 16.6928 6.6665 16.3536 6.6665 16C6.6665 15.6464 6.80698 15.3072 7.05703 15.0572C7.30708 14.8071 7.64622 14.6667 7.99984 14.6667Z" fill="#22385F"/>
</svg>
