<svg width="133" height="33" viewBox="0 0 133 33" fill="none" xmlns="http://www.w3.org/2000/svg">
<path d="M89.6735 29.44H90.1935L102.303 0.666687H105.943L93.4868 32H86.3368L88.6035 2.22669H88.0835L73.9735 32H70.3335L84.7902 0.666687H91.9402L89.6735 29.44Z" fill="#014B9F" stroke="#014B9F"/>
<path d="M55 0H77L58 32H36L55 0Z" fill="#014B9F"/>
<path d="M35 0H51L32 32H16L35 0Z" fill="#92A7B0"/>
<path d="M19 0H31L12 32H0L19 0Z" fill="#C9D3D8"/>
<path d="M111.453 0.666687H118.343L112.83 30.44H113.35L125.84 0.666687H132.947L125.49 33H122.11L129.22 3.22669H128.7L116.21 33H109.537L115.007 3.22669H114.487L103.377 33H100.04L111.453 0.666687Z" fill="#92A7B0"/>
</svg>
