<svg width="32" height="32" viewBox="0 0 32 32" fill="none" xmlns="http://www.w3.org/2000/svg">
<rect width="32" height="32" rx="5.33333" fill="white" fill-opacity="0.3"/>
<path d="M11.9999 21.5997L7.33325 16.933C7.21122 16.8095 7.06588 16.7114 6.90567 16.6445C6.74545 16.5776 6.57355 16.5431 6.39991 16.5431C6.22628 16.5431 6.05437 16.5776 5.89416 16.6445C5.73394 16.7114 5.58861 16.8095 5.46658 16.933C5.34306 17.055 5.24499 17.2004 5.17806 17.3606C5.11113 17.5208 5.07666 17.6927 5.07666 17.8663C5.07666 18.04 5.11113 18.2119 5.17806 18.3721C5.24499 18.5323 5.34306 18.6777 5.46658 18.7997L11.0532 24.3864C11.5732 24.9064 12.4132 24.9064 12.9332 24.3864L27.0666 10.2664C27.1901 10.1443 27.2882 9.99899 27.3551 9.83877C27.422 9.67856 27.4565 9.50665 27.4565 9.33302C27.4565 9.15938 27.422 8.98748 27.3551 8.82726C27.2882 8.66705 27.1901 8.52172 27.0666 8.39968C26.9445 8.27617 26.7992 8.1781 26.639 8.11116C26.4788 8.04423 26.3069 8.00977 26.1332 8.00977C25.9596 8.00977 25.7877 8.04423 25.6275 8.11116C25.4673 8.1781 25.3219 8.27617 25.1999 8.39968L11.9999 21.5997Z" fill="#FFCE2B"/>
</svg>
