<svg width="42" height="42" viewBox="0 0 42 42" fill="none" xmlns="http://www.w3.org/2000/svg">
<path d="M19.7165 3.83491C20.1087 2.62784 21.8164 2.62784 22.2086 3.83491L25.3748 13.5795C25.5502 14.1193 26.0532 14.4848 26.6208 14.4848H36.8669C38.1361 14.4848 38.6638 16.1089 37.637 16.8549L29.3478 22.8774C28.8886 23.211 28.6964 23.8023 28.8718 24.3422L32.038 34.0867C32.4302 35.2938 31.0487 36.2975 30.0219 35.5515L21.7327 29.5291C21.2735 29.1954 20.6517 29.1954 20.1925 29.5291L11.9032 35.5515C10.8765 36.2975 9.49492 35.2938 9.88712 34.0867L13.0533 24.3422C13.2287 23.8023 13.0366 23.211 12.5774 22.8774L4.28815 16.8549C3.26136 16.1089 3.78906 14.4848 5.05824 14.4848H15.3043C15.8719 14.4848 16.3749 14.1193 16.5503 13.5795L19.7165 3.83491Z" fill="#FFCE2B"/>
</svg>
