<svg width="56" height="56" viewBox="0 0 56 56" fill="none" xmlns="http://www.w3.org/2000/svg">
<rect width="56" height="56" rx="28" fill="#F2F5F6" fill-opacity="0.16"/>
<g clip-path="url(#clip0_16_280)">
<path d="M16.1219 13H39.8786C40.1415 13 40.4008 13.0622 40.6351 13.1815C40.8695 13.3008 41.0723 13.474 41.2269 13.6867L47.5986 22.4467C47.7118 22.6025 47.7676 22.7928 47.7563 22.9852C47.7451 23.1775 47.6675 23.3601 47.5369 23.5017L28.6119 44.0033C28.4619 44.1654 28.2538 44.2613 28.0332 44.2701C27.8126 44.2788 27.5975 44.1997 27.4352 44.05C27.4236 44.04 21.1019 37.1917 8.46355 23.5017C8.33289 23.3601 8.25534 23.1775 8.2441 22.9852C8.23285 22.7928 8.28861 22.6025 8.40189 22.4467L14.7736 13.6867C14.9282 13.474 15.131 13.3008 15.3653 13.1815C15.5996 13.0622 15.8589 13 16.1219 13ZM16.9719 16.3333L12.3052 22.75L28.0002 39.75L43.6952 22.75L39.0286 16.3333H16.9719Z" fill="white"/>
</g>
<defs>
<clipPath id="clip0_16_280">
<rect width="40" height="40" fill="white" transform="translate(8 8)"/>
</clipPath>
</defs>
</svg>
